<svg width="310" height="79" fill="none" xmlns="http://www.w3.org/2000/svg"><g filter="url(#a)"><path d="M10 35.944C10 22.107 21.218 10.89 35.056 10.89H61.42c2.613 0 5.162-.806 7.299-2.31l7.631-5.366a3 3 0 0 1 3.451 0L85.8 7.431a19 19 0 0 0 10.93 3.458h178.214c13.838 0 25.056 11.218 25.056 25.055C300 49.782 288.782 61 274.944 61H35.055C21.218 61 10 49.782 10 35.944Z" fill="url(#b)"/></g><defs><linearGradient id="b" x1="422" y1="42" x2="10" y2="42" gradientUnits="userSpaceOnUse"><stop stop-color="#FC0"/><stop offset="1" stop-color="#FFA300"/></linearGradient><filter id="a" x="0" y=".667" width="310" height="78.332" filterUnits="userSpaceOnUse" color-interpolation-filters="sRGB"><feFlood flood-opacity="0" result="BackgroundImageFix"/><feColorMatrix in="SourceAlpha" values="0 0 0 0 0 0 0 0 0 0 0 0 0 0 0 0 0 0 127 0" result="hardAlpha"/><feMorphology radius="5" in="SourceAlpha" result="effect1_dropShadow_2_2887"/><feOffset dy="8"/><feGaussianBlur stdDeviation="7.5"/><feColorMatrix values="0 0 0 0 0 0 0 0 0 0 0 0 0 0 0 0 0 0 0.1 0"/><feBlend in2="BackgroundImageFix" result="effect1_dropShadow_2_2887"/><feBlend in="SourceGraphic" in2="effect1_dropShadow_2_2887" result="shape"/></filter></defs></svg>