<svg xmlns="http://www.w3.org/2000/svg" width="86" height="86" fill="none"><g filter="url(#a)"><rect width="50" height="50" x="18" y="11" fill="#fff" rx="7"/><path fill="#000" d="m36.828 44.828-2.12-2.12 18.23-18.231.75-2.166 4.354-2.938 2.121 2.12-2.939 4.354-2.165.751-18.23 18.23Z"/><path fill="#4633B9" fill-rule="evenodd" d="m42.839 31.838-1.807.186a6.476 6.476 0 0 0-3.919 1.863l-7.78 7.78a6.5 6.5 0 1 0 9.192 9.193l7.78-7.78a6.475 6.475 0 0 0 1.864-3.92l.185-1.806-5.515-5.515Z" clip-rule="evenodd"/><path fill="#1767F9" fill-rule="evenodd" d="m42.839 31.838-1.807.186a6.476 6.476 0 0 0-3.919 1.863l-7.78 7.78a6.5 6.5 0 1 0 9.192 9.193l7.78-7.78a6.475 6.475 0 0 0 1.864-3.92l.185-1.806-5.515-5.515Z" clip-rule="evenodd"/><path fill="#4BB1BC" fill-rule="evenodd" d="m42.839 31.838-1.807.186a6.476 6.476 0 0 0-3.919 1.863l-7.78 7.78a6.5 6.5 0 1 0 9.192 9.193l7.78-7.78a6.475 6.475 0 0 0 1.864-3.92l.185-1.806-5.515-5.515Z" clip-rule="evenodd"/><path fill="#FFA300" fill-rule="evenodd" d="m42.839 31.838-1.807.186a6.476 6.476 0 0 0-3.919 1.863l-7.78 7.78a6.5 6.5 0 1 0 9.192 9.193l7.78-7.78a6.475 6.475 0 0 0 1.864-3.92l.185-1.806-5.515-5.515Z" clip-rule="evenodd"/><path fill="url(#b)" fill-rule="evenodd" d="m42.839 31.838-1.807.186a6.476 6.476 0 0 0-3.919 1.863l-7.78 7.78a6.5 6.5 0 1 0 9.192 9.193l7.78-7.78a6.475 6.475 0 0 0 1.864-3.92l.185-1.806-5.515-5.515Z" clip-rule="evenodd"/><path fill="#FFA300" d="M46.643 30.643c-1.31-1.31-3.71-.472-4.193 1.464l5.1 5.1c1.936-.482 2.774-2.883 1.464-4.193l-2.37-2.37Z"/><rect width="1" height="13" x="40" y="37" fill="#000" rx=".5" transform="rotate(45 40 37)"/><rect width="1" height="13" x="42" y="39" fill="#000" rx=".5" transform="rotate(45 42 39)"/></g><defs><linearGradient id="b" x1="42.061" x2="32.868" y1="47.324" y2="38.132" gradientUnits="userSpaceOnUse"><stop stop-color="#FC0"/><stop offset="1" stop-color="#FFA300"/></linearGradient><filter id="a" width="84.353" height="84.353" x=".824" y=".98" color-interpolation-filters="sRGB" filterUnits="userSpaceOnUse"><feFlood flood-opacity="0" result="BackgroundImageFix"/><feColorMatrix in="SourceAlpha" result="hardAlpha" values="0 0 0 0 0 0 0 0 0 0 0 0 0 0 0 0 0 0 127 0"/><feMorphology in="SourceAlpha" radius="4.294" result="effect1_dropShadow_2_2905"/><feOffset dy="7.157"/><feGaussianBlur stdDeviation="10.735"/><feColorMatrix values="0 0 0 0 0.1375 0 0 0 0 0.0965937 0 0 0 0 0.0171875 0 0 0 0.15 0"/><feBlend in2="BackgroundImageFix" result="effect1_dropShadow_2_2905"/><feBlend in="SourceGraphic" in2="effect1_dropShadow_2_2905" result="shape"/></filter></defs></svg>