<svg xmlns="http://www.w3.org/2000/svg" width="86" height="86" fill="none"><g filter="url(#a)"><rect width="50" height="50" x="18" y="11" fill="#fff" rx="7"/><g clip-path="url(#b)"><rect width="4" height="9" fill="#4633B9" rx="2" transform="scale(-1 1) rotate(-45 28.991 69.991)"/><rect width="4" height="9" fill="#1767F9" rx="2" transform="scale(-1 1) rotate(-45 28.991 69.991)"/><rect width="4" height="9" fill="#4BB1BC" rx="2" transform="scale(-1 1) rotate(-45 28.991 69.991)"/><rect width="4" height="9" fill="url(#c)" rx="2" transform="scale(-1 1) rotate(-45 28.991 69.991)"/><rect width="4" height="9" fill="url(#d)" fill-opacity=".5" rx="2" transform="scale(-1 1) rotate(-45 28.991 69.991)"/><rect width="4" height="9" fill="url(#e)" rx="2" transform="scale(-1 1) rotate(-45 28.991 69.991)"/><path fill="#4633B9" fill-rule="evenodd" d="M34.854 42.854a2.622 2.622 0 0 0-3.708 0L26.99 47.01a3.5 3.5 0 0 0 4.95 4.95l4.156-4.157a2.622 2.622 0 0 0 0-3.707l-1.242-1.242Z" clip-rule="evenodd"/><path fill="#1767F9" fill-rule="evenodd" d="M34.854 42.854a2.622 2.622 0 0 0-3.708 0L26.99 47.01a3.5 3.5 0 0 0 4.95 4.95l4.156-4.157a2.622 2.622 0 0 0 0-3.707l-1.242-1.242Z" clip-rule="evenodd"/><path fill="#4BB1BC" fill-rule="evenodd" d="M34.854 42.854a2.622 2.622 0 0 0-3.708 0L26.99 47.01a3.5 3.5 0 0 0 4.95 4.95l4.156-4.157a2.622 2.622 0 0 0 0-3.707l-1.242-1.242Z" clip-rule="evenodd"/><path fill="url(#f)" fill-rule="evenodd" d="M34.854 42.854a2.622 2.622 0 0 0-3.708 0L26.99 47.01a3.5 3.5 0 0 0 4.95 4.95l4.156-4.157a2.622 2.622 0 0 0 0-3.707l-1.242-1.242Z" clip-rule="evenodd"/><path fill="url(#g)" fill-opacity=".5" fill-rule="evenodd" d="M34.854 42.854a2.622 2.622 0 0 0-3.708 0L26.99 47.01a3.5 3.5 0 0 0 4.95 4.95l4.156-4.157a2.622 2.622 0 0 0 0-3.707l-1.242-1.242Z" clip-rule="evenodd"/><path fill="url(#h)" fill-rule="evenodd" d="M34.854 42.854a2.622 2.622 0 0 0-3.708 0L26.99 47.01a3.5 3.5 0 0 0 4.95 4.95l4.156-4.157a2.622 2.622 0 0 0 0-3.707l-1.242-1.242Z" clip-rule="evenodd"/><path fill="#4633B9" d="M49.67 20.3a12 12 0 1 0-5.34 23.397 12 12 0 0 0 5.34-23.396Z"/><path fill="#1767F9" d="M49.67 20.3a12 12 0 1 0-5.34 23.397 12 12 0 0 0 5.34-23.396Z"/><path fill="#4BB1BC" d="M49.67 20.3a12 12 0 1 0-5.34 23.397 12 12 0 0 0 5.34-23.396Z"/><path fill="url(#i)" d="M49.67 20.3a12 12 0 1 0-5.34 23.397 12 12 0 0 0 5.34-23.396Z"/><path fill="url(#j)" fill-opacity=".5" d="M49.67 20.3a12 12 0 1 0-5.34 23.397 12 12 0 0 0 5.34-23.396Z"/><path fill="url(#k)" d="M49.67 20.3a12 12 0 1 0-5.34 23.397 12 12 0 0 0 5.34-23.396Z"/><path stroke="#4633B9" stroke-width="2" d="M48.78 24.2a7.998 7.998 0 0 0-8.988 11.271 8 8 0 1 0 8.988-11.27Z"/><path stroke="#1767F9" stroke-width="2" d="M48.78 24.2a7.998 7.998 0 0 0-8.988 11.271 8 8 0 1 0 8.988-11.27Z"/><path stroke="#4BB1BC" stroke-width="2" d="M48.78 24.2a7.998 7.998 0 0 0-8.988 11.271 8 8 0 1 0 8.988-11.27Z"/><path stroke="url(#l)" stroke-width="2" d="M48.78 24.2a7.998 7.998 0 0 0-8.988 11.271 8 8 0 1 0 8.988-11.27Z"/><path stroke="url(#m)" stroke-opacity=".5" stroke-width="2" d="M48.78 24.2a7.998 7.998 0 0 0-8.988 11.271 8 8 0 1 0 8.988-11.27Z"/><path stroke="url(#n)" stroke-width="2" d="M48.78 24.2a7.998 7.998 0 0 0-8.988 11.271 8 8 0 1 0 8.988-11.27Z"/><path fill="#4633B9" d="M49.003 23.226A9.002 9.002 0 0 0 38 32a9 9 0 1 0 11.003-8.774Z"/><path fill="#1767F9" d="M49.003 23.226A9.002 9.002 0 0 0 38 32a9 9 0 1 0 11.003-8.774Z"/><path fill="#4BB1BC" d="M49.003 23.226A9.002 9.002 0 0 0 38 32a9 9 0 1 0 11.003-8.774Z"/><path fill="url(#o)" d="M49.003 23.226A9.002 9.002 0 0 0 38 32a9 9 0 1 0 11.003-8.774Z"/><path fill="url(#p)" fill-opacity=".5" d="M49.003 23.226A9.002 9.002 0 0 0 38 32a9 9 0 1 0 11.003-8.774Z"/><path fill="url(#q)" d="M49.003 23.226A9.002 9.002 0 0 0 38 32a9 9 0 1 0 11.003-8.774Z"/><path stroke="#000" stroke-width="2" d="M49.003 23.226A9.002 9.002 0 0 0 38 32a9 9 0 1 0 11.003-8.774Z"/></g></g><defs><radialGradient id="c" cx="0" cy="0" r="1" gradientTransform="matrix(-1.06665 4.71429 -2.962 -.67018 2.4 6.643)" gradientUnits="userSpaceOnUse"><stop stop-color="#FF8A1E"/><stop offset="1" stop-color="#EF4141"/></radialGradient><radialGradient id="j" cx="0" cy="0" r="1" gradientTransform="rotate(-23.448 101.434 -97.72) scale(29.4596 34.8142)" gradientUnits="userSpaceOnUse"><stop stop-color="#FFA901"/><stop offset="1" stop-color="#FFC701" stop-opacity="0"/></radialGradient><radialGradient id="p" cx="0" cy="0" r="1" gradientTransform="rotate(-23.448 101.278 -97.629) scale(23.9341 28.2845)" gradientUnits="userSpaceOnUse"><stop stop-color="#FFA901"/><stop offset="1" stop-color="#FFC701" stop-opacity="0"/></radialGradient><radialGradient id="f" cx="0" cy="0" r="1" gradientTransform="rotate(151.54 8.484 28.883) scale(6.55703 5.2234)" gradientUnits="userSpaceOnUse"><stop stop-color="#FF8A1E"/><stop offset="1" stop-color="#EF4141"/></radialGradient><radialGradient id="g" cx="0" cy="0" r="1" gradientTransform="rotate(-98.368 36.167 10.462) scale(9.5768 14.8445)" gradientUnits="userSpaceOnUse"><stop stop-color="#FFA901"/><stop offset="1" stop-color="#FFC701" stop-opacity="0"/></radialGradient><radialGradient id="o" cx="0" cy="0" r="1" gradientTransform="rotate(63.02 -7.483 55.083) scale(11.7556 13.8738)" gradientUnits="userSpaceOnUse"><stop stop-color="#FF8A1E"/><stop offset="1" stop-color="#EF4141"/></radialGradient><radialGradient id="i" cx="0" cy="0" r="1" gradientTransform="rotate(63.02 -8.61 55.257) scale(14.4695 17.0767)" gradientUnits="userSpaceOnUse"><stop stop-color="#FF8A1E"/><stop offset="1" stop-color="#EF4141"/></radialGradient><radialGradient id="d" cx="0" cy="0" r="1" gradientTransform="rotate(-135.699 1.917 1.905) scale(6.1362 9.92908)" gradientUnits="userSpaceOnUse"><stop stop-color="#FFA901"/><stop offset="1" stop-color="#FFC701" stop-opacity="0"/></radialGradient><radialGradient id="k" cx="0" cy="0" r="1" gradientTransform="matrix(31.74185 -5.89057 5.07036 27.32211 47.26 31.12)" gradientUnits="userSpaceOnUse"><stop stop-color="#FFDF35"/><stop offset="1" stop-color="#FF8A01" stop-opacity="0"/></radialGradient><radialGradient id="l" cx="0" cy="0" r="1" gradientTransform="rotate(63.02 -7.108 55.026) scale(10.8522 12.8075)" gradientUnits="userSpaceOnUse"><stop stop-color="#FF8A1E"/><stop offset="1" stop-color="#EF4141"/></radialGradient><radialGradient id="m" cx="0" cy="0" r="1" gradientTransform="rotate(-23.448 101.225 -97.599) scale(22.0947 26.1107)" gradientUnits="userSpaceOnUse"><stop stop-color="#FFA901"/><stop offset="1" stop-color="#FFC701" stop-opacity="0"/></radialGradient><radialGradient id="n" cx="0" cy="0" r="1" gradientTransform="rotate(-11.421 180.306 -220.315) scale(17.3295 14.9166)" gradientUnits="userSpaceOnUse"><stop stop-color="#FFDF35"/><stop offset="1" stop-color="#FF8A01" stop-opacity="0"/></radialGradient><linearGradient id="h" x1="37.117" x2="20.49" y1="45.117" y2="45.878" gradientUnits="userSpaceOnUse"><stop stop-color="#FFDF35"/><stop offset="1" stop-color="#FF8A01" stop-opacity="0"/></linearGradient><linearGradient id="e" x1="3.327" x2="-4.987" y1="0" y2="6.942" gradientUnits="userSpaceOnUse"><stop stop-color="#FFDF35"/><stop offset="1" stop-color="#FF8A01" stop-opacity="0"/></linearGradient><linearGradient id="q" x1="44.5" x2="50.333" y1="28.071" y2="36.102" gradientUnits="userSpaceOnUse"><stop stop-color="#FFDF35"/><stop offset="1" stop-color="#FFDF35" stop-opacity="0"/></linearGradient><clipPath id="b"><path fill="#fff" d="M61 18H25v36h36z"/></clipPath><filter id="a" width="84.353" height="84.353" x=".824" y=".98" color-interpolation-filters="sRGB" filterUnits="userSpaceOnUse"><feFlood flood-opacity="0" result="BackgroundImageFix"/><feColorMatrix in="SourceAlpha" result="hardAlpha" values="0 0 0 0 0 0 0 0 0 0 0 0 0 0 0 0 0 0 127 0"/><feMorphology in="SourceAlpha" radius="4.294" result="effect1_dropShadow_2_2938"/><feOffset dy="7.157"/><feGaussianBlur stdDeviation="10.735"/><feColorMatrix values="0 0 0 0 0.1375 0 0 0 0 0.0965937 0 0 0 0 0.0171875 0 0 0 0.15 0"/><feBlend in2="BackgroundImageFix" result="effect1_dropShadow_2_2938"/><feBlend in="SourceGraphic" in2="effect1_dropShadow_2_2938" result="shape"/></filter></defs></svg>