<svg xmlns="http://www.w3.org/2000/svg" width="86" height="85" fill="none"><g filter="url(#a)"><rect width="50" height="50" x="18" y="10" fill="#fff" rx="7"/><path fill="#4633B9" d="M58.944 25.82a1.78 1.78 0 0 0-.314-.842 1.817 1.817 0 0 0-.688-.588l-14.625-7.2a1.85 1.85 0 0 0-1.636 0l-14.625 7.2a1.825 1.825 0 0 0-.686.589c-.175.25-.283.54-.314.841-.02.193-1.756 19.379 15.702 27.023a1.83 1.83 0 0 0 1.484 0C60.7 45.199 58.964 26.015 58.944 25.82Z"/><path fill="#1767F9" d="M58.944 25.82a1.78 1.78 0 0 0-.314-.842 1.817 1.817 0 0 0-.688-.588l-14.625-7.2a1.85 1.85 0 0 0-1.636 0l-14.625 7.2a1.825 1.825 0 0 0-.686.589c-.175.25-.283.54-.314.841-.02.193-1.756 19.379 15.702 27.023a1.83 1.83 0 0 0 1.484 0C60.7 45.199 58.964 26.015 58.944 25.82Z"/><path fill="#4BB1BC" d="M58.944 25.82a1.78 1.78 0 0 0-.314-.842 1.817 1.817 0 0 0-.688-.588l-14.625-7.2a1.85 1.85 0 0 0-1.636 0l-14.625 7.2a1.825 1.825 0 0 0-.686.589c-.175.25-.283.54-.314.841-.02.193-1.756 19.379 15.702 27.023a1.83 1.83 0 0 0 1.484 0C60.7 45.199 58.964 26.015 58.944 25.82Z"/><path fill="url(#b)" d="M58.944 25.82a1.78 1.78 0 0 0-.314-.842 1.817 1.817 0 0 0-.688-.588l-14.625-7.2a1.85 1.85 0 0 0-1.636 0l-14.625 7.2a1.825 1.825 0 0 0-.686.589c-.175.25-.283.54-.314.841-.02.193-1.756 19.379 15.702 27.023a1.83 1.83 0 0 0 1.484 0C60.7 45.199 58.964 26.015 58.944 25.82Z"/><path fill="url(#c)" fill-opacity=".5" d="M58.944 25.82a1.78 1.78 0 0 0-.314-.842 1.817 1.817 0 0 0-.688-.588l-14.625-7.2a1.85 1.85 0 0 0-1.636 0l-14.625 7.2a1.825 1.825 0 0 0-.686.589c-.175.25-.283.54-.314.841-.02.193-1.756 19.379 15.702 27.023a1.83 1.83 0 0 0 1.484 0C60.7 45.199 58.964 26.015 58.944 25.82Z"/><path fill="url(#d)" d="M58.944 25.82a1.78 1.78 0 0 0-.314-.842 1.817 1.817 0 0 0-.688-.588l-14.625-7.2a1.85 1.85 0 0 0-1.636 0l-14.625 7.2a1.825 1.825 0 0 0-.686.589c-.175.25-.283.54-.314.841-.02.193-1.756 19.379 15.702 27.023a1.83 1.83 0 0 0 1.484 0C60.7 45.199 58.964 26.015 58.944 25.82Z"/><path stroke="#FFC530" stroke-width="2" d="M55.957 27.694v.003c.003.03.092 1.034.005 2.625a27.176 27.176 0 0 1-1.068 6.217c-1.422 4.776-4.6 10.27-11.67 13.412l-.005.002a.532.532 0 0 1-.438 0l-.005-.002c-7.07-3.142-10.248-8.636-11.67-13.413-.713-2.394-.98-4.6-1.068-6.217-.086-1.586.002-2.588.005-2.623v-.003a.552.552 0 0 1 .301-.438h.001l12.407-6.199a.552.552 0 0 1 .494 0l12.41 6.2a.546.546 0 0 1 .207.18l.823-.568-.823.568a.545.545 0 0 1 .094.256Z"/><path stroke="#000" stroke-width="2" d="M54.96 28.206v-.003a.453.453 0 0 0-.076-.212l.825-.564-.825.564a.44.44 0 0 0-.166-.145h-.001l-11.523-5.8a.433.433 0 0 0-.39 0l-11.52 5.799h-.001a.447.447 0 0 0-.244.36v.002m23.922-.001H31.039m23.922 0c.003.035.084.97.004 2.447a25.533 25.533 0 0 1-.99 5.803c-1.317 4.457-4.26 9.577-10.799 12.505l-.005.002a.415.415 0 0 1-.342 0l-.005-.002M54.96 28.206 42.824 48.961M31.039 28.207v.001m0-.001v.001m11.785 20.753c-6.54-2.928-9.482-8.048-10.8-12.506m10.8 12.506-10.8-12.506m0 0a25.535 25.535 0 0 1-.99-5.803m.99 5.803-.99-5.803m0 0c-.078-1.473.002-2.406.005-2.444m-.004 2.444.004-2.444m12.546 21.665c13.755-6.157 12.386-21.611 12.37-21.768l-13.54 21.768a1.414 1.414 0 0 0 1.17 0ZM37 33.261 41.178 37 49 30"/></g><defs><radialGradient id="b" cx="0" cy="0" r="1" gradientTransform="rotate(115.017 9.026 36.37) scale(20.8094 23.2776)" gradientUnits="userSpaceOnUse"><stop stop-color="#FF8A1E"/><stop offset="1" stop-color="#EF4141"/></radialGradient><radialGradient id="c" cx="0" cy="0" r="1" gradientTransform="rotate(-154.678 25.055 12.98) scale(40.0812 50.1628)" gradientUnits="userSpaceOnUse"><stop stop-color="#FFA901"/><stop offset="1" stop-color="#FFC701" stop-opacity="0"/></radialGradient><linearGradient id="d" x1="53.447" x2="24.094" y1="17" y2="67.551" gradientUnits="userSpaceOnUse"><stop stop-color="#FFDF35"/><stop offset="1" stop-color="#FF8A01" stop-opacity="0"/></linearGradient><filter id="a" width="84.271" height="84.271" x=".865" y=".004" color-interpolation-filters="sRGB" filterUnits="userSpaceOnUse"><feFlood flood-opacity="0" result="BackgroundImageFix"/><feColorMatrix in="SourceAlpha" result="hardAlpha" values="0 0 0 0 0 0 0 0 0 0 0 0 0 0 0 0 0 0 127 0"/><feMorphology in="SourceAlpha" radius="4.284" result="effect1_dropShadow_2_2915"/><feOffset dy="7.14"/><feGaussianBlur stdDeviation="10.71"/><feColorMatrix values="0 0 0 0 0.1375 0 0 0 0 0.0965937 0 0 0 0 0.0171875 0 0 0 0.15 0"/><feBlend in2="BackgroundImageFix" result="effect1_dropShadow_2_2915"/><feBlend in="SourceGraphic" in2="effect1_dropShadow_2_2915" result="shape"/></filter></defs></svg>