<svg width="245" height="60" fill="none" xmlns="http://www.w3.org/2000/svg"><path d="M41.566 23.4V36h2.898V25.776h5.688V36h2.898V23.4H41.566Zm18.927 12.744c3.078 0 5.31-2.07 5.31-4.986s-2.232-4.986-5.31-4.986c-3.078 0-5.328 2.07-5.328 4.986s2.25 4.986 5.328 4.986Zm0-2.304c-1.404 0-2.484-1.008-2.484-2.682s1.08-2.682 2.484-2.682 2.466 1.008 2.466 2.682-1.062 2.682-2.466 2.682Zm14.1 2.16h3.312l-3.618-5.04 3.384-4.644h-2.988l-2.628 3.762h-1.512v-3.762h-2.808V36h2.808v-3.672H72L74.593 36Zm8.277-9.828c-1.548 0-3.114.414-4.176 1.17l1.008 1.962c.702-.558 1.764-.9 2.79-.9 1.512 0 2.232.702 2.232 1.908h-2.232c-2.952 0-4.158 1.188-4.158 2.898 0 1.674 1.35 2.934 3.618 2.934 1.422 0 2.43-.468 2.952-1.35V36h2.628v-5.526c0-2.934-1.71-4.302-4.662-4.302Zm-.216 8.082c-.99 0-1.584-.468-1.584-1.17 0-.648.414-1.134 1.728-1.134h1.926v.99c-.324.882-1.134 1.314-2.07 1.314Zm13.511-3.294c.936-.414 1.548-1.188 1.548-2.106 0-1.71-1.962-2.718-4.572-2.718-1.278 0-2.61.306-3.924.882l.684 1.944c1.08-.432 2.088-.666 3.06-.666 1.242 0 1.908.36 1.908.972 0 .594-.54.918-1.53.918h-1.728v1.746h1.98c1.008 0 1.548.324 1.548.954 0 .72-.828 1.134-2.124 1.134-1.188 0-2.376-.252-3.384-.738l-.756 1.962c1.26.63 2.772.936 4.266.936 2.754 0 4.842-1.17 4.842-3.06 0-1.044-.666-1.8-1.818-2.16Zm7.588-4.788c-1.548 0-3.114.414-4.176 1.17l1.008 1.962c.702-.558 1.764-.9 2.79-.9 1.512 0 2.232.702 2.232 1.908h-2.232c-2.952 0-4.158 1.188-4.158 2.898 0 1.674 1.35 2.934 3.618 2.934 1.422 0 2.43-.468 2.952-1.35V36h2.628v-5.526c0-2.934-1.71-4.302-4.662-4.302Zm-.216 8.082c-.99 0-1.584-.468-1.584-1.17 0-.648.414-1.134 1.728-1.134h1.926v.99c-.324.882-1.134 1.314-2.07 1.314Zm15.453-7.938h-9.342v2.304h3.276V36h2.79v-7.38h3.276v-2.304Zm6.735 3.096h-2.448v-3.096h-2.79V36l4.86.018c2.7 0 4.284-1.242 4.284-3.384 0-2.034-1.368-3.204-3.906-3.222Zm-.63 4.608h-1.818v-2.808l1.818.018c1.08.018 1.674.414 1.674 1.368 0 .954-.594 1.44-1.674 1.422Zm15.15-7.848c-1.548 0-3.114.414-4.176 1.17l1.008 1.962c.702-.558 1.764-.9 2.79-.9 1.512 0 2.232.702 2.232 1.908h-2.232c-2.952 0-4.158 1.188-4.158 2.898 0 1.674 1.35 2.934 3.618 2.934 1.422 0 2.43-.468 2.952-1.35V36h2.628v-5.526c0-2.934-1.71-4.302-4.662-4.302Zm-.216 8.082c-.99 0-1.584-.468-1.584-1.17 0-.648.414-1.134 1.728-1.134h1.926v.99c-.324.882-1.134 1.314-2.07 1.314Zm16.785-.558v-7.38h-8.442l-.126 3.348c-.108 2.106-.342 3.996-1.674 4.032h-.396v4.392h2.61V36h6.804v2.088h2.61v-4.392h-1.386Zm-6.03-3.834.054-1.242h3.168v5.076h-4.086c.684-.72.81-2.196.864-3.834Zm14.889-3.69c-1.296 0-2.34.414-3.042 1.26v-1.116h-2.682v13.176h2.808v-4.518c.72.792 1.71 1.17 2.916 1.17 2.718 0 4.824-1.944 4.824-4.986s-2.106-4.986-4.824-4.986Zm-.486 7.668c-1.404 0-2.466-1.008-2.466-2.682s1.062-2.682 2.466-2.682c1.404 0 2.466 1.008 2.466 2.682s-1.062 2.682-2.466 2.682Zm16.692-2.646c0-3.114-2.196-5.022-5.04-5.022-2.952 0-5.166 2.088-5.166 4.986 0 2.88 2.178 4.986 5.526 4.986 1.746 0 3.096-.54 3.996-1.566l-1.494-1.62c-.666.63-1.404.936-2.43.936-1.476 0-2.502-.738-2.772-1.944h7.326c.018-.234.054-.54.054-.756Zm-5.022-2.898c1.26 0 2.178.792 2.376 2.016h-4.77c.198-1.242 1.116-2.016 2.394-2.016Zm11.783 7.848c2.034 0 3.636-.9 4.338-2.448l-2.178-1.188c-.522.936-1.296 1.332-2.178 1.332-1.422 0-2.538-.99-2.538-2.682s1.116-2.682 2.538-2.682c.882 0 1.656.414 2.178 1.332l2.178-1.17c-.702-1.584-2.304-2.466-4.338-2.466-3.15 0-5.4 2.07-5.4 4.986s2.25 4.986 5.4 4.986Zm9.806-9.972c-1.548 0-3.114.414-4.176 1.17l1.008 1.962c.702-.558 1.764-.9 2.79-.9 1.512 0 2.232.702 2.232 1.908h-2.232c-2.952 0-4.158 1.188-4.158 2.898 0 1.674 1.35 2.934 3.618 2.934 1.422 0 2.43-.468 2.952-1.35V36h2.628v-5.526c0-2.934-1.71-4.302-4.662-4.302Zm-.216 8.082c-.99 0-1.584-.468-1.584-1.17 0-.648.414-1.134 1.728-1.134h1.926v.99c-.324.882-1.134 1.314-2.07 1.314Z" fill="#000"/><rect x="1" y="1" width="243" height="58" rx="29" stroke="#000" stroke-width="2"/></svg>